<?xml version="1.0" standalone="no"?>
<!DOCTYPE svg PUBLIC "-//W3C//DTD SVG 20010904//EN"
 "http://www.w3.org/TR/2001/REC-SVG-20010904/DTD/svg10.dtd">
<svg version="1.0" xmlns="http://www.w3.org/2000/svg"
 width="1280.000000pt" height="820.000000pt" viewBox="0 0 1280.000000 820.000000"
 preserveAspectRatio="xMidYMid meet">
<g transform="translate(0.000000,820.000000) scale(0.100000,-0.100000)"
fill="#000000" stroke="none">
<path d="M2 8158 c3 -42 13 -53 638 -675 l635 -633 672 666 c370 366 673 670
673 675 0 5 -526 9 -1311 9 l-1310 0 3 -42z"/>
<path d="M4025 7530 l670 -670 667 667 c368 368 668 669 668 670 0 2 -602 3
-1337 3 l-1338 0 670 -670z"/>
<path d="M7455 7510 c379 -379 694 -690 700 -690 6 0 321 311 700 690 l690
690 -1390 0 -1390 0 690 -690z"/>
<path d="M10817 7498 l703 -703 638 635 639 635 1 68 2 67 -1342 0 -1343 0
702 -702z"/>
<path d="M2247 7352 c-400 -400 -727 -732 -727 -737 0 -6 329 -339 730 -740
l730 -730 735 735 c404 404 735 739 735 745 0 16 -1444 1455 -1460 1455 -8 0
-342 -327 -743 -728z"/>
<path d="M5662 7357 c-397 -397 -722 -727 -722 -732 0 -6 340 -350 755 -765
l755 -755 730 730 c401 401 730 734 730 740 0 16 -1494 1505 -1510 1505 -8 0
-340 -325 -738 -723z"/>
<path d="M9107 7292 l-717 -717 728 -728 727 -727 720 720 720 720 -725 725
c-399 399 -727 725 -730 725 -3 0 -328 -323 -723 -718z"/>
<path d="M0 6615 l0 -1040 515 515 c283 283 515 519 515 525 0 6 -232 242
-515 525 l-515 515 0 -1040z"/>
<path d="M12275 7080 l-520 -520 523 -523 522 -522 0 1043 c0 573 -1 1042 -3
1042 -1 0 -236 -234 -522 -520z"/>
<path d="M3950 5645 l-735 -735 755 -755 c415 -415 760 -755 765 -755 6 0 341
331 745 735 l735 735 -755 755 c-415 415 -759 755 -765 755 -6 0 -341 -331
-745 -735z"/>
<path d="M632 5737 l-632 -632 2 -185 1 -185 644 -640 643 -640 728 728 727
727 -730 730 c-401 401 -734 730 -740 730 -6 0 -295 -285 -643 -633z"/>
<path d="M7415 5600 l-730 -730 728 -727 727 -728 730 730 c401 401 730 734
730 740 0 13 -1432 1445 -1445 1445 -6 0 -339 -329 -740 -730z"/>
<path d="M10797 5602 l-717 -717 725 -725 725 -725 633 630 634 630 1 175 2
176 -635 634 c-349 349 -639 636 -643 638 -4 1 -330 -321 -725 -716z"/>
<path d="M2250 3945 l-725 -725 757 -757 758 -758 717 715 c395 393 722 721
727 729 6 10 -187 209 -745 767 -415 415 -756 754 -759 754 -3 0 -331 -326
-730 -725z"/>
<path d="M9105 3910 l-730 -730 720 -720 c396 -396 724 -720 730 -720 6 0 339
328 740 730 l730 730 -720 720 c-396 396 -724 720 -730 720 -6 0 -339 -328
-740 -730z"/>
<path d="M5705 3896 l-740 -735 725 -725 c399 -399 729 -726 735 -726 6 0 341
331 745 735 l735 735 -725 725 c-399 399 -727 725 -730 725 -3 0 -338 -330
-745 -734z"/>
<path d="M0 3220 l0 -1055 527 528 528 527 -528 527 -527 528 0 -1055z"/>
<path d="M12280 3715 l-515 -515 518 -518 517 -517 0 1033 c0 567 -1 1032 -3
1032 -1 0 -234 -232 -517 -515z"/>
<path d="M643 2338 l-643 -643 2 -90 1 -90 714 -710 713 -710 688 688 687 687
-755 755 c-415 415 -757 755 -760 755 -3 0 -294 -289 -647 -642z"/>
<path d="M10797 2232 c-400 -400 -727 -732 -727 -737 0 -16 1356 -1368 1369
-1364 6 2 315 308 686 679 l675 675 0 105 0 105 -630 630 c-347 347 -634 631
-638 633 -4 1 -334 -325 -735 -726z"/>
<path d="M7397 2202 l-737 -737 725 -725 725 -725 735 735 c404 404 735 739
735 745 0 10 -1430 1445 -1440 1445 -3 0 -337 -332 -743 -738z"/>
<path d="M4003 2197 l-728 -727 725 -725 c399 -399 729 -725 735 -725 13 0
1445 1432 1445 1445 0 6 -326 336 -725 735 l-725 725 -727 -728z"/>
</g>
</svg>
